<?xml version="1.0" encoding="UTF-8"?>
<svg width="700pt" height="700pt" version="1.1" viewBox="0 0 700 700" xmlns="http://www.w3.org/2000/svg">
 <path d="m205.45 542.7c-91.16-0.85547-90.449-135.56 0-136.24v0.003906c19.289-0.20312 37.797 7.6055 51.109 21.566v-293.25c0-3.6367 2.25-6.8945 5.6562-8.1836l289.15-109.26c2.6914-0.97656 5.6875-0.59375 8.0391 1.0312 2.3555 1.6289 3.7734 4.2969 3.8047 7.1562v372.74c0.19922 18.223-6.9414 35.758-19.812 48.652-12.871 12.898-30.395 20.074-48.613 19.914-18.309 0.41797-35.988-6.6875-48.914-19.66-12.926-12.973-19.965-30.676-19.48-48.984 0.027344-18.547 7.5547-36.297 20.871-49.215 13.312-12.914 31.285-19.895 49.828-19.359 18.543 0.53906 36.078 8.5547 48.621 22.219v-238.16l-271.65 102.79v257c0.66016 18.449-6.332 36.348-19.328 49.461-12.992 13.113-30.828 20.273-49.281 19.777zm0-118.74c-67.254-0.50391-67.891 101.62 0 101.24 67.488 0.43359 67.531-101.64 0-101.23zm289.06-76.914v0.003907c-18.25 0.082031-35.07 9.8828-44.145 25.715-9.0742 15.832-9.0234 35.297 0.13281 51.086 9.1562 15.785 26.027 25.496 44.273 25.484 18.273-0.046875 35.129-9.8398 44.227-25.688 9.0938-15.848 9.043-35.34-0.13281-51.141s-26.086-25.504-44.355-25.457zm-220.45-206.21v56.918l271.65-102.79v-56.773z"/>
</svg>
